<svg width="1080" height="1080" viewBox="0 0 1080 1080" fill="none" xmlns="http://www.w3.org/2000/svg">
<g clip-path="url(#clip0_1463_23)">
<circle cx="540" cy="540.031" r="540" fill="white"/>
<path fill-rule="evenodd" clip-rule="evenodd" d="M247.541 238.217C267.569 227.544 291.849 228.784 310.687 241.44L540 395.512L769.313 241.44C788.151 228.784 812.431 227.544 832.459 238.217C852.488 248.889 865 269.734 865 292.428V688.247C865 711.545 851.819 732.838 830.966 743.228L567.395 874.553C550.146 883.147 529.864 883.149 512.614 874.558L411.126 824.011C380.758 808.886 368.401 772.007 383.526 741.639C398.65 711.271 435.53 698.914 465.898 714.039L539.994 750.943L742.143 650.222V407.707L574.258 520.506C553.54 534.426 526.46 534.426 505.742 520.506L337.857 407.707V688.247C337.857 722.172 310.354 749.675 276.428 749.675C242.502 749.675 215 722.172 215 688.247V292.428C215 269.734 227.512 248.889 247.541 238.217Z" fill="black"/>
</g>
<defs>
<clipPath id="clip0_1463_23">
<rect width="1080" height="1080" fill="white"/>
</clipPath>
</defs>
</svg>
